<svg width="62" height="42" viewBox="0 0 62 42" fill="none" xmlns="http://www.w3.org/2000/svg">
<path d="M61.6933 41.7812V38.779L59.0801 38.1566C58.1068 37.9309 57.8032 37.7608 57.5607 37.0827L54.4868 28.741L54.4497 28.7605C54.1209 28.9268 53.7867 29.0893 53.4534 29.2556C53.1144 29.4061 52.7699 29.5464 52.4261 29.6913L52.1672 29.8L51.9062 29.8929L51.3796 30.0786L50.8504 30.2626C50.6721 30.3174 50.4928 30.3675 50.3145 30.4195L49.8752 30.5459L52.6379 38.2142L49.448 38.7251V41.7812H61.6933Z" fill="#11006A"/>
<path d="M61.3728 20.2375C60.2113 21.0113 59.0578 21.7489 57.8719 22.3787C56.6833 23.0048 55.4732 23.5306 54.2353 23.9365L53.771 24.0842L53.5387 24.1557L53.4218 24.1929L53.3029 24.2226C53.1562 24.2598 53.0122 24.2997 52.8655 24.3378L44.191 0.787625H40.8311H37.4711L29.8275 21.5325C29.7709 21.5102 29.7122 21.4869 29.6565 21.4645C29.6306 21.4572 29.6045 21.4469 29.5805 21.4386L21.972 0.787625H18.613H15.2532L7.89729 20.7549C7.16363 21.0679 6.45043 21.4191 5.77157 21.812C5.13639 22.1882 4.5272 22.5951 3.95235 23.04C3.37936 23.4795 2.8426 23.9607 2.34764 24.4688C1.85267 24.9732 1.40041 25.5147 0.999233 26.0777C0.605484 26.649 0.243308 27.236 0 27.864C0.499615 27.3893 1.03545 26.9741 1.58521 26.5867C2.13312 26.1966 2.70702 25.8501 3.2865 25.5277C3.86969 25.211 4.46218 24.9221 5.06766 24.6676C5.67315 24.4149 6.28791 24.1929 6.90455 23.995C9.3887 23.2167 11.9657 22.9323 14.5316 22.9796C15.8178 23.0103 17.103 23.1116 18.3586 23.3001C18.5146 23.3187 18.6725 23.3484 18.8294 23.3727L19.2993 23.4526C19.6104 23.5092 19.9215 23.577 20.2335 23.6355C20.5437 23.7071 20.8511 23.7767 21.1594 23.8519C21.4668 23.9356 21.7769 24.0043 22.0834 24.0926C23.312 24.4381 24.5322 24.8459 25.7627 25.3039L26.6887 25.6569C27.0006 25.7795 27.3099 25.8984 27.6227 26.0247L29.5265 26.7837C30.172 27.0373 30.8238 27.2955 31.4952 27.5454L31.9987 27.7311L32.5122 27.9142C32.8493 28.0358 33.2021 28.151 33.5504 28.2681C34.9573 28.7186 36.4349 29.1087 37.9718 29.3559C39.5114 29.5974 41.1023 29.6865 42.6716 29.5974C43.0458 29.5732 43.4062 29.5379 43.774 29.5082L44.3201 29.459C44.5019 29.4478 44.685 29.4255 44.8671 29.3995L45.9657 29.2574L46.2376 29.2212C46.3277 29.2072 46.4207 29.1905 46.5118 29.1738L47.0585 29.0762L47.6046 28.9805L47.8787 28.9323L48.1507 28.8691L49.2371 28.6201C49.4164 28.583 49.5976 28.5226 49.7778 28.4743L50.3155 28.321C50.4938 28.2681 50.6721 28.2179 50.8504 28.1631L51.3787 27.9792L51.9053 27.7943L52.1689 27.7005L52.4254 27.5909C52.7699 27.4478 53.1134 27.3085 53.4534 27.1552C53.7876 26.9917 54.12 26.8273 54.4497 26.661L54.5734 26.5979L54.6922 26.531L54.9319 26.3926L55.41 26.1139C56.6647 25.3522 57.8068 24.453 58.7996 23.4561C59.7943 22.464 60.6504 21.3839 61.3728 20.2375ZM23.8349 19.6698C23.6695 19.6318 23.5098 19.5825 23.3417 19.5483C21.8707 19.2325 20.3524 19.0346 18.8331 18.9557C17.3129 18.8822 15.7992 18.926 14.2985 19.0986C14.0477 19.1274 13.8026 19.1804 13.5537 19.2166L18.5963 5.20295L18.613 5.25122L18.6297 5.20295L23.8349 19.6698ZM48.0188 25.1181L47.5378 25.1562L47.2927 25.1738L47.0457 25.184L46.5543 25.2045L46.0612 25.2268L45.8142 25.237L45.5663 25.2398L44.5773 25.2491C44.2476 25.2565 43.9124 25.2435 43.58 25.2398L42.5891 25.2184C41.9798 25.1896 41.3714 25.1459 40.7697 25.0614C40.6176 25.04 40.4671 25.0233 40.3157 24.9982L39.867 24.9211L39.6395 24.8831L39.4168 24.8357L38.9637 24.7428C37.7655 24.4688 36.5668 24.1037 35.3491 23.669C35.0046 23.5427 34.6573 23.4079 34.309 23.2761L40.8125 5.20295L40.8311 5.25122L40.8477 5.20295L48.0188 25.1181Z" fill="#11006A"/>
<path d="M22.5798 38.1566L19.9666 38.7808V41.7812H32.2127V38.7223L29.0228 38.2142L32.0372 29.8436L31.9992 29.8287L31.495 29.6458C30.8262 29.3931 30.1724 29.1367 29.527 28.8813L27.6242 28.1242C27.5583 28.0963 27.4934 28.0731 27.4283 28.048L24.0971 37.0799C23.8568 37.7608 23.553 37.9309 22.5798 38.1566Z" fill="#11006A"/>
</svg>
